<mxfile host="Electron" modified="2023-06-13T15:29:15.663Z" agent="Mozilla/5.0 (X11; Linux x86_64) AppleWebKit/537.36 (KHTML, like Gecko) draw.io/21.3.7 Chrome/112.0.5615.204 Electron/24.5.0 Safari/537.36" etag="LZ2hFaWUYvbd_vFGLR9h" version="21.3.7" type="device">
  <diagram id="C5RBs43oDa-KdzZeNtuy" name="Page-1">
    <mxGraphModel dx="786" dy="1196" grid="1" gridSize="10" guides="1" tooltips="1" connect="1" arrows="1" fold="1" page="1" pageScale="1" pageWidth="827" pageHeight="1169" math="0" shadow="0">
      <root>
        <mxCell id="WIyWlLk6GJQsqaUBKTNV-0" />
        <mxCell id="WIyWlLk6GJQsqaUBKTNV-1" parent="WIyWlLk6GJQsqaUBKTNV-0" />
        <mxCell id="TvZoNBjaCknoz_HZQCnD-4" style="edgeStyle=orthogonalEdgeStyle;rounded=0;orthogonalLoop=1;jettySize=auto;html=1;exitX=0.5;exitY=1;exitDx=0;exitDy=0;entryX=0.5;entryY=0;entryDx=0;entryDy=0;" edge="1" parent="WIyWlLk6GJQsqaUBKTNV-1" source="WIyWlLk6GJQsqaUBKTNV-3" target="h12yd_wACJkEByoG1QkU-1">
          <mxGeometry relative="1" as="geometry">
            <mxPoint x="220" y="70" as="targetPoint" />
          </mxGeometry>
        </mxCell>
        <mxCell id="WIyWlLk6GJQsqaUBKTNV-3" value="Start" style="rounded=1;whiteSpace=wrap;html=1;fontSize=12;glass=0;strokeWidth=1;shadow=0;" parent="WIyWlLk6GJQsqaUBKTNV-1" vertex="1">
          <mxGeometry x="160" y="10" width="120" height="40" as="geometry" />
        </mxCell>
        <mxCell id="TvZoNBjaCknoz_HZQCnD-15" style="edgeStyle=orthogonalEdgeStyle;rounded=0;orthogonalLoop=1;jettySize=auto;html=1;exitX=0.5;exitY=1;exitDx=0;exitDy=0;entryX=0.5;entryY=0;entryDx=0;entryDy=0;" edge="1" parent="WIyWlLk6GJQsqaUBKTNV-1" source="WIyWlLk6GJQsqaUBKTNV-6" target="TvZoNBjaCknoz_HZQCnD-14">
          <mxGeometry relative="1" as="geometry" />
        </mxCell>
        <mxCell id="TvZoNBjaCknoz_HZQCnD-28" style="edgeStyle=orthogonalEdgeStyle;rounded=0;orthogonalLoop=1;jettySize=auto;html=1;exitX=1;exitY=0.5;exitDx=0;exitDy=0;" edge="1" parent="WIyWlLk6GJQsqaUBKTNV-1" source="WIyWlLk6GJQsqaUBKTNV-6">
          <mxGeometry relative="1" as="geometry">
            <mxPoint x="220" y="760" as="targetPoint" />
            <Array as="points">
              <mxPoint x="470" y="430" />
              <mxPoint x="470" y="760" />
            </Array>
          </mxGeometry>
        </mxCell>
        <mxCell id="WIyWlLk6GJQsqaUBKTNV-6" value="Client Web Conectat?" style="rhombus;whiteSpace=wrap;html=1;shadow=0;fontFamily=Helvetica;fontSize=12;align=center;strokeWidth=1;spacing=6;spacingTop=-4;" parent="WIyWlLk6GJQsqaUBKTNV-1" vertex="1">
          <mxGeometry x="170" y="390" width="100" height="80" as="geometry" />
        </mxCell>
        <mxCell id="h12yd_wACJkEByoG1QkU-8" style="edgeStyle=orthogonalEdgeStyle;rounded=0;orthogonalLoop=1;jettySize=auto;html=1;entryX=0.5;entryY=0;entryDx=0;entryDy=0;" parent="WIyWlLk6GJQsqaUBKTNV-1" target="h12yd_wACJkEByoG1QkU-1" edge="1">
          <mxGeometry relative="1" as="geometry">
            <mxPoint x="220" y="100" as="sourcePoint" />
          </mxGeometry>
        </mxCell>
        <mxCell id="TvZoNBjaCknoz_HZQCnD-5" style="edgeStyle=orthogonalEdgeStyle;rounded=0;orthogonalLoop=1;jettySize=auto;html=1;exitX=0.5;exitY=1;exitDx=0;exitDy=0;entryX=0.5;entryY=0;entryDx=0;entryDy=0;" edge="1" parent="WIyWlLk6GJQsqaUBKTNV-1" source="h12yd_wACJkEByoG1QkU-1" target="TvZoNBjaCknoz_HZQCnD-3">
          <mxGeometry relative="1" as="geometry" />
        </mxCell>
        <mxCell id="h12yd_wACJkEByoG1QkU-1" value="Setup UART1&lt;br&gt;(Debug)" style="rounded=1;whiteSpace=wrap;html=1;fontSize=12;glass=0;strokeWidth=1;shadow=0;" parent="WIyWlLk6GJQsqaUBKTNV-1" vertex="1">
          <mxGeometry x="160" y="70" width="120" height="40" as="geometry" />
        </mxCell>
        <mxCell id="TvZoNBjaCknoz_HZQCnD-13" style="edgeStyle=orthogonalEdgeStyle;rounded=0;orthogonalLoop=1;jettySize=auto;html=1;exitX=0.5;exitY=1;exitDx=0;exitDy=0;entryX=0.5;entryY=0;entryDx=0;entryDy=0;" edge="1" parent="WIyWlLk6GJQsqaUBKTNV-1" source="h12yd_wACJkEByoG1QkU-14" target="WIyWlLk6GJQsqaUBKTNV-6">
          <mxGeometry relative="1" as="geometry" />
        </mxCell>
        <mxCell id="h12yd_wACJkEByoG1QkU-14" value="Bucla Principala&lt;br&gt;(Loop)" style="rounded=1;whiteSpace=wrap;html=1;fontSize=12;glass=0;strokeWidth=1;shadow=0;" parent="WIyWlLk6GJQsqaUBKTNV-1" vertex="1">
          <mxGeometry x="160" y="325" width="120" height="40" as="geometry" />
        </mxCell>
        <mxCell id="h12yd_wACJkEByoG1QkU-20" value="Da" style="text;html=1;strokeColor=none;fillColor=none;align=center;verticalAlign=middle;whiteSpace=wrap;rounded=0;" parent="WIyWlLk6GJQsqaUBKTNV-1" vertex="1">
          <mxGeometry x="200" y="590" width="60" height="30" as="geometry" />
        </mxCell>
        <mxCell id="TvZoNBjaCknoz_HZQCnD-21" style="edgeStyle=orthogonalEdgeStyle;rounded=0;orthogonalLoop=1;jettySize=auto;html=1;exitX=0.5;exitY=1;exitDx=0;exitDy=0;entryX=0.5;entryY=0;entryDx=0;entryDy=0;" edge="1" parent="WIyWlLk6GJQsqaUBKTNV-1" source="h12yd_wACJkEByoG1QkU-22" target="TvZoNBjaCknoz_HZQCnD-20">
          <mxGeometry relative="1" as="geometry" />
        </mxCell>
        <mxCell id="h12yd_wACJkEByoG1QkU-22" value="Numar de elemente de afisat devine 30" style="rounded=1;whiteSpace=wrap;html=1;fontSize=12;glass=0;strokeWidth=1;shadow=0;" parent="WIyWlLk6GJQsqaUBKTNV-1" vertex="1">
          <mxGeometry x="160" y="640" width="120" height="40" as="geometry" />
        </mxCell>
        <mxCell id="TvZoNBjaCknoz_HZQCnD-8" style="edgeStyle=orthogonalEdgeStyle;rounded=0;orthogonalLoop=1;jettySize=auto;html=1;exitX=0.5;exitY=1;exitDx=0;exitDy=0;entryX=0.5;entryY=0;entryDx=0;entryDy=0;" edge="1" parent="WIyWlLk6GJQsqaUBKTNV-1" source="TvZoNBjaCknoz_HZQCnD-3" target="TvZoNBjaCknoz_HZQCnD-7">
          <mxGeometry relative="1" as="geometry" />
        </mxCell>
        <mxCell id="TvZoNBjaCknoz_HZQCnD-3" value="Setup WiFi&lt;br&gt;(+ServerWeb)" style="rounded=1;whiteSpace=wrap;html=1;fontSize=12;glass=0;strokeWidth=1;shadow=0;" vertex="1" parent="WIyWlLk6GJQsqaUBKTNV-1">
          <mxGeometry x="160" y="130" width="120" height="40" as="geometry" />
        </mxCell>
        <mxCell id="TvZoNBjaCknoz_HZQCnD-11" style="edgeStyle=orthogonalEdgeStyle;rounded=0;orthogonalLoop=1;jettySize=auto;html=1;exitX=0.5;exitY=1;exitDx=0;exitDy=0;" edge="1" parent="WIyWlLk6GJQsqaUBKTNV-1" source="TvZoNBjaCknoz_HZQCnD-7" target="h12yd_wACJkEByoG1QkU-14">
          <mxGeometry relative="1" as="geometry" />
        </mxCell>
        <mxCell id="TvZoNBjaCknoz_HZQCnD-7" value="Setup UART0&lt;br&gt;(GSM; initializare array de 30 elemente cu 0; index curent (arrindex) = 0; displayall = 0)" style="rounded=1;whiteSpace=wrap;html=1;fontSize=12;glass=0;strokeWidth=1;shadow=0;" vertex="1" parent="WIyWlLk6GJQsqaUBKTNV-1">
          <mxGeometry x="160" y="190" width="120" height="100" as="geometry" />
        </mxCell>
        <mxCell id="TvZoNBjaCknoz_HZQCnD-16" style="edgeStyle=orthogonalEdgeStyle;rounded=0;orthogonalLoop=1;jettySize=auto;html=1;exitX=0.5;exitY=1;exitDx=0;exitDy=0;entryX=0.5;entryY=0;entryDx=0;entryDy=0;" edge="1" parent="WIyWlLk6GJQsqaUBKTNV-1" source="TvZoNBjaCknoz_HZQCnD-14" target="h12yd_wACJkEByoG1QkU-22">
          <mxGeometry relative="1" as="geometry" />
        </mxCell>
        <mxCell id="TvZoNBjaCknoz_HZQCnD-18" style="edgeStyle=orthogonalEdgeStyle;rounded=0;orthogonalLoop=1;jettySize=auto;html=1;exitX=1;exitY=0.5;exitDx=0;exitDy=0;" edge="1" parent="WIyWlLk6GJQsqaUBKTNV-1" source="TvZoNBjaCknoz_HZQCnD-14" target="TvZoNBjaCknoz_HZQCnD-17">
          <mxGeometry relative="1" as="geometry" />
        </mxCell>
        <mxCell id="TvZoNBjaCknoz_HZQCnD-14" value="Tabel Date Complet?&lt;br&gt;(displayall = 1?)" style="rhombus;whiteSpace=wrap;html=1;shadow=0;fontFamily=Helvetica;fontSize=12;align=center;strokeWidth=1;spacing=6;spacingTop=-4;" vertex="1" parent="WIyWlLk6GJQsqaUBKTNV-1">
          <mxGeometry x="145" y="500" width="150" height="120" as="geometry" />
        </mxCell>
        <mxCell id="TvZoNBjaCknoz_HZQCnD-22" style="edgeStyle=orthogonalEdgeStyle;rounded=0;orthogonalLoop=1;jettySize=auto;html=1;exitX=0.5;exitY=1;exitDx=0;exitDy=0;entryX=1;entryY=0.5;entryDx=0;entryDy=0;" edge="1" parent="WIyWlLk6GJQsqaUBKTNV-1" source="TvZoNBjaCknoz_HZQCnD-17" target="TvZoNBjaCknoz_HZQCnD-20">
          <mxGeometry relative="1" as="geometry" />
        </mxCell>
        <mxCell id="TvZoNBjaCknoz_HZQCnD-17" value="Numar de elemente de afisat devine &#39;index maxim curent&#39;" style="rounded=1;whiteSpace=wrap;html=1;fontSize=12;glass=0;strokeWidth=1;shadow=0;" vertex="1" parent="WIyWlLk6GJQsqaUBKTNV-1">
          <mxGeometry x="310" y="640" width="120" height="40" as="geometry" />
        </mxCell>
        <mxCell id="TvZoNBjaCknoz_HZQCnD-19" value="Nu" style="text;html=1;strokeColor=none;fillColor=none;align=center;verticalAlign=middle;whiteSpace=wrap;rounded=0;" vertex="1" parent="WIyWlLk6GJQsqaUBKTNV-1">
          <mxGeometry x="272.5" y="560" width="60" height="30" as="geometry" />
        </mxCell>
        <mxCell id="TvZoNBjaCknoz_HZQCnD-24" style="edgeStyle=orthogonalEdgeStyle;rounded=0;orthogonalLoop=1;jettySize=auto;html=1;exitX=0.5;exitY=1;exitDx=0;exitDy=0;entryX=0.5;entryY=0;entryDx=0;entryDy=0;" edge="1" parent="WIyWlLk6GJQsqaUBKTNV-1" source="TvZoNBjaCknoz_HZQCnD-20" target="TvZoNBjaCknoz_HZQCnD-23">
          <mxGeometry relative="1" as="geometry" />
        </mxCell>
        <mxCell id="TvZoNBjaCknoz_HZQCnD-20" value="Trimite raspunsul HTML cu tabelul cu valori" style="rounded=1;whiteSpace=wrap;html=1;fontSize=12;glass=0;strokeWidth=1;shadow=0;" vertex="1" parent="WIyWlLk6GJQsqaUBKTNV-1">
          <mxGeometry x="160" y="700" width="120" height="40" as="geometry" />
        </mxCell>
        <mxCell id="TvZoNBjaCknoz_HZQCnD-30" style="edgeStyle=orthogonalEdgeStyle;rounded=0;orthogonalLoop=1;jettySize=auto;html=1;exitX=0.5;exitY=1;exitDx=0;exitDy=0;entryX=0.5;entryY=0;entryDx=0;entryDy=0;" edge="1" parent="WIyWlLk6GJQsqaUBKTNV-1" source="TvZoNBjaCknoz_HZQCnD-23" target="TvZoNBjaCknoz_HZQCnD-29">
          <mxGeometry relative="1" as="geometry" />
        </mxCell>
        <mxCell id="TvZoNBjaCknoz_HZQCnD-43" style="edgeStyle=orthogonalEdgeStyle;rounded=0;orthogonalLoop=1;jettySize=auto;html=1;exitX=1;exitY=0.5;exitDx=0;exitDy=0;" edge="1" parent="WIyWlLk6GJQsqaUBKTNV-1" source="TvZoNBjaCknoz_HZQCnD-23">
          <mxGeometry relative="1" as="geometry">
            <mxPoint x="220" y="310" as="targetPoint" />
            <Array as="points">
              <mxPoint x="501" y="825" />
              <mxPoint x="501" y="310" />
            </Array>
          </mxGeometry>
        </mxCell>
        <mxCell id="TvZoNBjaCknoz_HZQCnD-23" value="Avem date pe&lt;br&gt;seriala (UART0?)" style="rhombus;whiteSpace=wrap;html=1;shadow=0;fontFamily=Helvetica;fontSize=12;align=center;strokeWidth=1;spacing=6;spacingTop=-4;" vertex="1" parent="WIyWlLk6GJQsqaUBKTNV-1">
          <mxGeometry x="167.5" y="780" width="105" height="90" as="geometry" />
        </mxCell>
        <mxCell id="TvZoNBjaCknoz_HZQCnD-26" value="Nu" style="text;html=1;strokeColor=none;fillColor=none;align=center;verticalAlign=middle;whiteSpace=wrap;rounded=0;" vertex="1" parent="WIyWlLk6GJQsqaUBKTNV-1">
          <mxGeometry x="260" y="440" width="60" height="30" as="geometry" />
        </mxCell>
        <mxCell id="TvZoNBjaCknoz_HZQCnD-27" value="Da" style="text;html=1;strokeColor=none;fillColor=none;align=center;verticalAlign=middle;whiteSpace=wrap;rounded=0;" vertex="1" parent="WIyWlLk6GJQsqaUBKTNV-1">
          <mxGeometry x="200" y="470" width="60" height="30" as="geometry" />
        </mxCell>
        <mxCell id="TvZoNBjaCknoz_HZQCnD-40" style="edgeStyle=orthogonalEdgeStyle;rounded=0;orthogonalLoop=1;jettySize=auto;html=1;exitX=0.5;exitY=1;exitDx=0;exitDy=0;entryX=0.5;entryY=0;entryDx=0;entryDy=0;" edge="1" parent="WIyWlLk6GJQsqaUBKTNV-1" source="TvZoNBjaCknoz_HZQCnD-29" target="TvZoNBjaCknoz_HZQCnD-33">
          <mxGeometry relative="1" as="geometry" />
        </mxCell>
        <mxCell id="TvZoNBjaCknoz_HZQCnD-29" value="Parsare mesaj" style="rounded=1;whiteSpace=wrap;html=1;fontSize=12;glass=0;strokeWidth=1;shadow=0;" vertex="1" parent="WIyWlLk6GJQsqaUBKTNV-1">
          <mxGeometry x="160" y="900" width="120" height="40" as="geometry" />
        </mxCell>
        <mxCell id="TvZoNBjaCknoz_HZQCnD-31" value="Da" style="text;html=1;strokeColor=none;fillColor=none;align=center;verticalAlign=middle;whiteSpace=wrap;rounded=0;" vertex="1" parent="WIyWlLk6GJQsqaUBKTNV-1">
          <mxGeometry x="200" y="870" width="60" height="30" as="geometry" />
        </mxCell>
        <mxCell id="TvZoNBjaCknoz_HZQCnD-32" value="Da" style="text;html=1;strokeColor=none;fillColor=none;align=center;verticalAlign=middle;whiteSpace=wrap;rounded=0;" vertex="1" parent="WIyWlLk6GJQsqaUBKTNV-1">
          <mxGeometry x="200" y="610" width="60" height="30" as="geometry" />
        </mxCell>
        <mxCell id="TvZoNBjaCknoz_HZQCnD-37" style="edgeStyle=orthogonalEdgeStyle;rounded=0;orthogonalLoop=1;jettySize=auto;html=1;exitX=0.5;exitY=1;exitDx=0;exitDy=0;entryX=0.5;entryY=0;entryDx=0;entryDy=0;" edge="1" parent="WIyWlLk6GJQsqaUBKTNV-1" source="TvZoNBjaCknoz_HZQCnD-33" target="TvZoNBjaCknoz_HZQCnD-34">
          <mxGeometry relative="1" as="geometry" />
        </mxCell>
        <mxCell id="TvZoNBjaCknoz_HZQCnD-33" value="Scriere date in tabel la pozitia curenta (arrindex)" style="rounded=1;whiteSpace=wrap;html=1;fontSize=12;glass=0;strokeWidth=1;shadow=0;" vertex="1" parent="WIyWlLk6GJQsqaUBKTNV-1">
          <mxGeometry x="160" y="960" width="120" height="50" as="geometry" />
        </mxCell>
        <mxCell id="TvZoNBjaCknoz_HZQCnD-38" style="edgeStyle=orthogonalEdgeStyle;rounded=0;orthogonalLoop=1;jettySize=auto;html=1;exitX=0.5;exitY=1;exitDx=0;exitDy=0;entryX=0.5;entryY=0;entryDx=0;entryDy=0;" edge="1" parent="WIyWlLk6GJQsqaUBKTNV-1" source="TvZoNBjaCknoz_HZQCnD-34" target="TvZoNBjaCknoz_HZQCnD-35">
          <mxGeometry relative="1" as="geometry" />
        </mxCell>
        <mxCell id="TvZoNBjaCknoz_HZQCnD-34" value="Incrementare index (arrindex), modulo 30" style="rounded=1;whiteSpace=wrap;html=1;fontSize=12;glass=0;strokeWidth=1;shadow=0;" vertex="1" parent="WIyWlLk6GJQsqaUBKTNV-1">
          <mxGeometry x="160" y="1030" width="120" height="50" as="geometry" />
        </mxCell>
        <mxCell id="TvZoNBjaCknoz_HZQCnD-39" style="edgeStyle=orthogonalEdgeStyle;rounded=0;orthogonalLoop=1;jettySize=auto;html=1;exitX=0.5;exitY=1;exitDx=0;exitDy=0;entryX=0.5;entryY=0;entryDx=0;entryDy=0;" edge="1" parent="WIyWlLk6GJQsqaUBKTNV-1" source="TvZoNBjaCknoz_HZQCnD-35" target="TvZoNBjaCknoz_HZQCnD-36">
          <mxGeometry relative="1" as="geometry" />
        </mxCell>
        <mxCell id="TvZoNBjaCknoz_HZQCnD-35" value="Am umplut tabelul?&lt;br&gt;(arrindex = 0 ?)" style="rhombus;whiteSpace=wrap;html=1;shadow=0;fontFamily=Helvetica;fontSize=12;align=center;strokeWidth=1;spacing=6;spacingTop=-4;" vertex="1" parent="WIyWlLk6GJQsqaUBKTNV-1">
          <mxGeometry x="145" y="1110" width="142.5" height="110" as="geometry" />
        </mxCell>
        <mxCell id="TvZoNBjaCknoz_HZQCnD-42" style="edgeStyle=orthogonalEdgeStyle;rounded=0;orthogonalLoop=1;jettySize=auto;html=1;exitX=0.5;exitY=1;exitDx=0;exitDy=0;" edge="1" parent="WIyWlLk6GJQsqaUBKTNV-1" source="TvZoNBjaCknoz_HZQCnD-36">
          <mxGeometry relative="1" as="geometry">
            <mxPoint x="220" y="310" as="targetPoint" />
            <Array as="points">
              <mxPoint x="216" y="1400" />
              <mxPoint x="110" y="1400" />
              <mxPoint x="110" y="310" />
            </Array>
          </mxGeometry>
        </mxCell>
        <mxCell id="TvZoNBjaCknoz_HZQCnD-36" value="Pun marcajul de tabel umplut&lt;br&gt;(displayall = 1)" style="rounded=1;whiteSpace=wrap;html=1;fontSize=12;glass=0;strokeWidth=1;shadow=0;" vertex="1" parent="WIyWlLk6GJQsqaUBKTNV-1">
          <mxGeometry x="156.25" y="1330" width="120" height="50" as="geometry" />
        </mxCell>
        <mxCell id="TvZoNBjaCknoz_HZQCnD-41" value="Da" style="text;html=1;strokeColor=none;fillColor=none;align=center;verticalAlign=middle;whiteSpace=wrap;rounded=0;" vertex="1" parent="WIyWlLk6GJQsqaUBKTNV-1">
          <mxGeometry x="200" y="1290" width="60" height="30" as="geometry" />
        </mxCell>
        <mxCell id="TvZoNBjaCknoz_HZQCnD-44" value="Nu" style="text;html=1;strokeColor=none;fillColor=none;align=center;verticalAlign=middle;whiteSpace=wrap;rounded=0;" vertex="1" parent="WIyWlLk6GJQsqaUBKTNV-1">
          <mxGeometry x="260" y="800" width="60" height="30" as="geometry" />
        </mxCell>
        <mxCell id="TvZoNBjaCknoz_HZQCnD-45" style="edgeStyle=orthogonalEdgeStyle;rounded=0;orthogonalLoop=1;jettySize=auto;html=1;exitX=0.5;exitY=1;exitDx=0;exitDy=0;" edge="1" parent="WIyWlLk6GJQsqaUBKTNV-1" source="TvZoNBjaCknoz_HZQCnD-19" target="TvZoNBjaCknoz_HZQCnD-19">
          <mxGeometry relative="1" as="geometry" />
        </mxCell>
      </root>
    </mxGraphModel>
  </diagram>
</mxfile>
